Coordinates
version=1
nRows=17
nColumns=34
inDegrees=yes

Units are S.I. units (second, meters, Newtons, ...)
If the header above contains a line with 'inDegrees', this indicates whether rotational values are in degrees (yes) or radians (no).

endheader
time	pelvis_tilt	pelvis_list	pelvis_rotation	pelvis_tx	pelvis_ty	pelvis_tz	hip_flexion_r	hip_adduction_r	hip_rotation_r	knee_angle_r	ankle_angle_r	subtalar_angle_r	mtp_angle_r	hip_flexion_l	hip_adduction_l	hip_rotation_l	knee_angle_l	ankle_angle_l	subtalar_angle_l	mtp_angle_l	lumbar_extension	lumbar_bending	lumbar_rotation	arm_flex_r	arm_add_r	arm_rot_r	elbow_flex_r	pro_sup_r	arm_flex_l	arm_add_l	arm_rot_l	elbow_flex_l	pro_sup_l
      1.10000000	      1.21813022	     -0.64809287	      0.96386128	     -0.97921926	      0.92859941	     -0.26199482	     -8.68584026	      6.83625569	     -2.36677248	     -5.29642130	     10.27873619	      2.07162892	      1.13177010	     23.16260949	      0.17797047	     -2.07279588	    -26.91074803	      2.43627454	     -9.56858921	      4.66270306	     -7.99676244	      3.23519340	      4.04357115	      3.97195136	    -22.69021852	     13.70362338	     34.67085292	     90.00000000	     -4.29491323	    -13.90783111	     19.41039658	     15.24453107	     90.00000000
      1.11000000	      0.96093663	     -0.93806578	      0.93070469	     -0.96689774	      0.92633456	     -0.26177646	     -9.52056290	      7.17765455	     -2.38083008	     -4.83109393	     10.71956853	      2.17945620	      1.19722137	     23.70435870	     -0.00547570	     -2.28004874	    -23.63042882	      2.72230324	     -9.33470447	      4.78468429	     -7.72102367	      3.55065185	      4.17863461	      4.28872489	    -22.88182500	     13.54549596	     35.18207471	     90.00000000	     -4.92492564	    -13.82977194	     19.31301606	     15.15428825	     90.00000000
      1.12000000	      0.86471169	     -0.85511138	      0.81181846	     -0.95454582	      0.92423921	     -0.26163212	    -10.53771723	      7.08863485	     -1.99149558	     -4.39065950	     11.16780419	      2.40806060	      1.23733083	     23.79635488	      0.22422919	     -2.31753861	    -20.02230823	      3.00419347	     -8.75543277	      5.01571624	     -7.68802619	      3.42816054	      4.31121025	      4.64692540	    -23.10495093	     13.43156112	     35.95012671	     90.00000000	     -5.29109881	    -13.67980866	     19.11331917	     14.50649564	     90.00000000
      1.13000000	      1.61943828	     -0.59191073	      0.67305910	     -0.94177582	      0.92331097	     -0.26145051	    -12.40415841	      6.79614496	     -2.19599711	     -4.10059093	     11.79097945	      3.10529486	      0.84203339	     22.82518893	      0.56194579	     -2.86004317	    -16.35135211	      2.98408832	     -7.77361929	      6.91366280	     -8.63185057	      3.12942452	      4.67784979	      4.59677748	    -23.32926809	     12.50989978	     37.47384539	     90.00000000	     -5.25171651	    -13.58130675	     19.27762391	     13.46501557	     90.00000000
      1.14000000	      1.36528967	     -0.82567451	      0.61532369	     -0.92932394	      0.92069589	     -0.26146988	    -13.01712173	      7.05620565	     -1.97061242	     -4.10488855	     12.29350303	      3.08076517	      0.92840125	     23.13239145	      0.49861572	     -2.78698625	    -13.18334447	      3.07115179	     -7.07687239	      7.04510584	     -8.36499595	      3.37325001	      4.75327674	      4.88038078	    -23.54554978	     12.45065839	     37.93679814	     90.00000000	     -5.75531644	    -13.47298946	     19.18070923	     13.30962137	     90.00000000
      1.15000000	      1.64152078	     -0.80046968	      0.51437943	     -0.91669770	      0.91890001	     -0.26146796	    -14.35516849	      7.04552515	     -1.57645462	     -3.81858278	     12.51438733	      2.63804369	      0.93005710	     22.78001028	      0.63857723	     -3.19381331	    -10.13836236	      2.81139301	     -5.32816085	      7.55787493	     -8.74630351	      3.32744706	      4.95652273	      5.00441814	    -23.83788321	     12.41794594	     38.92382405	     90.00000000	     -5.82645925	    -13.28528934	     18.88384449	     12.40574535	     90.00000000
      1.16000000	      1.63093316	     -0.94372112	      0.52984696	     -0.90397306	      0.91668859	     -0.26173801	    -15.20295576	      7.20375293	     -1.53616089	     -3.90190766	     12.84392362	      2.61449270	      1.09312529	     22.80857944	      0.68992130	     -3.31942880	     -7.56106183	      2.81203481	     -3.59188867	      8.05804167	     -8.76703028	      3.48744187	      5.01500415	      5.04641677	    -24.05787024	     12.11271767	     39.71635771	     90.00000000	     -6.09608420	    -13.17062903	     18.80935214	     11.97419974	     90.00000000
      1.17000000	      1.56576741	     -1.06689829	      0.48664637	     -0.89118573	      0.91441917	     -0.26200923	    -15.97911591	      7.30431129	     -1.35903812	     -4.02507074	     13.11704631	      2.62223202	      1.39613751	     22.92518475	      0.73648696	     -3.64372341	     -5.44423638	      2.65560474	     -1.66975553	      8.56597299	     -8.70431276	      3.61611606	      5.07691048	      5.09129784	    -24.24823748	     11.86445050	     40.36618354	     90.00000000	     -6.36893508	    -13.06755098	     18.98810707	     11.59912499	     90.00000000
      1.18000000	      1.47640063	     -1.21411797	      0.51761536	     -0.87839689	      0.91212351	     -0.26245643	    -16.62587696	      7.43915278	     -1.30155010	     -4.34066380	     13.38100211	      2.60031344	      1.64475522	     23.11157975	      0.81445461	     -3.90906089	     -3.83837520	      2.44513000	      0.18983311	      8.93870436	     -8.60469753	      3.78578235	      5.02241399	      5.14627113	    -24.41903783	     11.69173116	     40.91572773	     90.00000000	     -6.50909784	    -12.76518774	     19.08161055	     10.66406762	     90.00000000
      1.19000000	      1.46331760	     -1.33595553	      0.38560106	     -0.86532657	      0.91012592	     -0.26273299	    -17.25916834	      7.45927351	     -1.22484301	     -4.86038082	     13.62649993	      3.03918952	      2.05276647	     23.29859234	      0.82026579	     -4.67569406	     -2.97878261	      2.47927094	      2.81236161	      9.53058199	     -8.57894200	      3.91257956	      5.16293498	      5.03514481	    -24.59826620	     11.31797852	     41.54437260	     90.00000000	     -6.66326746	    -12.60433909	     19.16871162	     10.16616762	     90.00000000
      1.20000000	      1.44767219	     -1.45028819	      0.28381104	     -0.85211872	      0.90835930	     -0.26308244	    -17.80620892	      7.47471722	     -1.23689904	     -5.54660178	     13.74496133	      3.34304060	      2.46670997	     23.52816570	      0.84517335	     -5.07665863	     -2.73353181	      2.37273198	      4.48190551	      9.92426869	     -8.53744881	      4.02064187	      5.22956666	      4.94584474	    -24.68505839	     10.94269028	     41.94556620	     90.00000000	     -6.82779262	    -12.51500728	     19.29126772	      9.88123353	     90.00000000
      1.21000000	      1.43271374	     -1.51907441	      0.20098566	     -0.83875453	      0.90673944	     -0.26335302	    -18.27217640	      7.43945240	     -1.14935794	     -6.37814531	     13.70623881	      3.36236397	      2.50159478	     23.82116933	      0.93304506	     -4.93650069	     -3.23486206	      2.36454150	      4.56290712	      9.94006882	     -8.50275517	      4.03537557	      5.23488296	      4.79612246	    -24.78051450	     10.81873168	     42.18391862	     90.00000000	     -7.29351573	    -12.56058297	     19.18698629	     10.32599984	     90.00000000
      1.22000000	      1.43512183	     -1.50142392	      0.08330836	     -0.82511663	      0.90533575	     -0.26361577	    -18.65504741	      7.26218609	     -1.19791969	     -7.40130554	     13.83580808	      4.16078104	      3.16877083	     24.06601013	      1.05416944	     -4.93354120	     -4.23950769	      2.53982368	      5.43404180	     10.22811584	     -8.41444228	      3.99563673	      5.32029911	      4.48574049	    -24.73315212	     10.16509499	     42.55696493	     90.00000000	     -7.05307273	    -12.29098951	     19.27831035	      8.98251871	     90.00000000
      1.23000000	      1.49085970	     -1.44290447	      0.00277738	     -0.81098311	      0.90402440	     -0.26367088	    -19.13547679	      7.07980652	     -1.07869686	     -8.39189382	     13.66891945	      4.47822115	      3.40047074	     24.33228974	      1.21378007	     -4.84805439	     -5.92632133	      2.68232558	      5.24798643	     10.30675478	     -8.35554215	      3.82233325	      5.25043762	      4.18608397	    -24.62680712	      9.80274856	     42.75136393	     90.00000000	     -7.39927891	    -12.33724949	     19.30140868	      9.18809601	     90.00000000
      1.24000000	      1.33992207	     -1.29111533	     -0.03311410	     -0.79662564	      0.90240131	     -0.26405294	    -19.06965145	      6.72336552	     -1.59841782	     -9.97996089	     13.44704158	      5.72044348	      5.97900186	     24.67880099	      1.56202055	     -4.17870146	     -7.75474629	      2.74303110	      4.00839301	     10.75999603	     -7.99241409	      3.63346371	      5.46080159	      3.23934177	    -24.43078886	      8.09973209	     43.32666596	     90.00000000	     -7.22028541	    -12.17569150	     21.97023271	      8.09027468	     90.00000000
      1.25000000	      1.28588967	     -1.17941299	     -0.16401140	     -0.78187169	      0.90110349	     -0.26412012	    -19.18938976	      6.42103992	     -1.64120596	    -11.42258389	     12.96094013	      6.19831214	      6.90878439	     24.76205273	      1.83412857	     -3.63316056	     -9.61950823	      2.60647292	      2.90627545	     10.62597432	     -7.70592836	      3.41139919	      5.44463161	      2.72289150	    -24.20386363	      7.47762189	     43.27521700	     90.00000000	     -7.42029541	    -12.13388236	     22.18559020	      7.77438512	     90.00000000
      1.26000000	      1.32193014	     -1.00086236	     -0.22785747	     -0.76678933	      0.90012665	     -0.26406295	    -19.42494102	      6.09699117	     -1.67847264	    -12.79247743	     12.15802929	      6.47425353	      7.08982301	     24.55413571	      2.16159337	     -3.23551181	    -11.12588719	      1.30032526	      2.59716503	     10.35535829	     -7.47555453	      3.06668329	      5.40496432	      2.10247722	    -24.00410617	      7.13024981	     43.16751184	     90.00000000	     -7.68287644	    -12.28041314	     22.04930634	      7.92350209	     90.00000000
